<svg width="180" height="44" viewBox="0 0 180 44" fill="none" xmlns="http://www.w3.org/2000/svg">
<path d="M60.76 34.4354L55.6 17.6354H55.48C55.5 18.0354 55.53 18.6354 55.57 19.4354C55.61 20.2354 55.65 21.0954 55.69 22.0154C55.73 22.9154 55.75 23.7354 55.75 24.4754V34.4354H51.7V13.0154H57.88L62.95 29.3954H63.04L68.41 13.0154H74.59V34.4354H70.36V24.2954C70.36 23.6154 70.37 22.8354 70.39 21.9554C70.43 21.0754 70.46 20.2454 70.48 19.4654C70.52 18.6654 70.55 18.0654 70.57 17.6654H70.45L64.93 34.4354H60.76ZM86.6608 21.8354L91.1308 13.0154H96.0208L88.9108 26.0954V34.4354H84.4108V26.2454L77.3008 13.0154H82.2208L86.6608 21.8354Z" fill="#7653FC"/>
<path d="M108.984 29.712C108.984 30.816 108.568 31.68 107.736 32.304C106.92 32.928 105.72 33.24 104.136 33.24C103.256 33.24 102.464 33.16 101.76 33C101.056 32.84 100.472 32.648 100.008 32.424V31.464C100.616 31.768 101.272 32.008 101.976 32.184C102.68 32.344 103.408 32.424 104.16 32.424C105.536 32.424 106.528 32.184 107.136 31.704C107.744 31.224 108.048 30.576 108.048 29.76C108.048 29.2 107.888 28.744 107.568 28.392C107.264 28.04 106.832 27.744 106.272 27.504C105.712 27.264 105.072 27.032 104.352 26.808C103.584 26.552 102.896 26.304 102.288 26.064C101.68 25.808 101.2 25.472 100.848 25.056C100.496 24.624 100.32 24.024 100.32 23.256C100.32 22.248 100.72 21.464 101.52 20.904C102.336 20.328 103.424 20.04 104.784 20.04C105.536 20.04 106.24 20.112 106.896 20.256C107.552 20.4 108.144 20.584 108.672 20.808L108.312 21.624C107.848 21.4 107.296 21.224 106.656 21.096C106.016 20.952 105.384 20.88 104.76 20.88C103.656 20.88 102.792 21.08 102.168 21.48C101.56 21.864 101.256 22.448 101.256 23.232C101.256 23.824 101.408 24.28 101.712 24.6C102.016 24.92 102.432 25.184 102.96 25.392C103.488 25.584 104.096 25.8 104.784 26.04C105.52 26.28 106.2 26.536 106.824 26.808C107.464 27.064 107.984 27.416 108.384 27.864C108.784 28.312 108.984 28.928 108.984 29.712ZM115.438 32.4C115.806 32.4 116.142 32.376 116.446 32.328C116.766 32.28 117.054 32.208 117.31 32.112V32.904C117.054 33 116.766 33.08 116.446 33.144C116.126 33.208 115.766 33.24 115.366 33.24C114.262 33.24 113.47 32.928 112.99 32.304C112.51 31.68 112.27 30.768 112.27 29.568V21.096H110.35V20.472L112.27 20.256L112.558 17.184H113.206V20.28H117.238V21.096H113.206V29.496C113.206 30.44 113.366 31.16 113.686 31.656C114.022 32.152 114.606 32.4 115.438 32.4ZM130.489 26.64C130.489 27.92 130.281 29.056 129.865 30.048C129.465 31.04 128.849 31.824 128.017 32.4C127.185 32.96 126.145 33.24 124.897 33.24C123.697 33.24 122.681 32.96 121.849 32.4C121.033 31.84 120.409 31.064 119.977 30.072C119.561 29.08 119.353 27.936 119.353 26.64C119.353 24.608 119.849 23 120.841 21.816C121.849 20.632 123.241 20.04 125.017 20.04C126.281 20.04 127.313 20.328 128.113 20.904C128.913 21.48 129.505 22.264 129.889 23.256C130.289 24.248 130.489 25.376 130.489 26.64ZM120.313 26.64C120.313 28.352 120.689 29.744 121.441 30.816C122.193 31.872 123.345 32.4 124.897 32.4C125.969 32.4 126.849 32.16 127.537 31.68C128.225 31.184 128.729 30.504 129.049 29.64C129.369 28.776 129.529 27.776 129.529 26.64C129.529 25.552 129.377 24.576 129.073 23.712C128.769 22.848 128.281 22.16 127.609 21.648C126.953 21.136 126.089 20.88 125.017 20.88C123.497 20.88 122.329 21.392 121.513 22.416C120.713 23.424 120.313 24.832 120.313 26.64ZM138.866 20.088C139.218 20.088 139.546 20.112 139.85 20.16C140.154 20.192 140.442 20.248 140.714 20.328L140.546 21.192C140.258 21.112 139.978 21.056 139.706 21.024C139.45 20.976 139.154 20.952 138.818 20.952C137.554 20.952 136.594 21.4 135.938 22.296C135.298 23.192 134.978 24.4 134.978 25.92V33H134.066V20.28H134.882L134.954 22.704H135.026C135.282 21.968 135.73 21.352 136.37 20.856C137.026 20.344 137.858 20.088 138.866 20.088ZM147.537 20.04C148.625 20.04 149.513 20.304 150.201 20.832C150.905 21.344 151.425 22.048 151.761 22.944C152.113 23.824 152.289 24.824 152.289 25.944V26.688H142.977C142.961 28.528 143.369 29.944 144.201 30.936C145.049 31.912 146.257 32.4 147.825 32.4C148.609 32.4 149.281 32.344 149.841 32.232C150.417 32.104 151.065 31.872 151.785 31.536V32.448C151.161 32.72 150.537 32.92 149.913 33.048C149.305 33.176 148.601 33.24 147.801 33.24C146.505 33.24 145.425 32.968 144.561 32.424C143.713 31.88 143.073 31.12 142.641 30.144C142.225 29.168 142.017 28.04 142.017 26.76C142.017 25.528 142.225 24.408 142.641 23.4C143.057 22.376 143.673 21.56 144.489 20.952C145.305 20.344 146.321 20.04 147.537 20.04ZM147.537 20.88C146.257 20.88 145.217 21.312 144.417 22.176C143.617 23.024 143.145 24.256 143.001 25.872H151.329C151.329 24.384 151.017 23.184 150.393 22.272C149.769 21.344 148.817 20.88 147.537 20.88Z" fill="#7653FC"/>
<path d="M41 1.74391C41 1.0926 40.4622 0.564575 39.7988 0.564575C39.1355 0.564575 38.5977 1.0926 38.5977 1.74391C38.5977 3.02254 37.4609 4.10266 36.1152 4.10266H30.6968C27.6077 2.55891 24.0892 1.74399 20.5 1.74399C16.9108 1.74399 13.3923 2.55891 10.3032 4.10266H4.89942C3.54586 4.10274 2.40234 3.02254 2.40234 1.74391C2.40234 1.0926 1.86454 0.564575 1.20117 0.564575C0.537805 0.564575 0 1.0926 0 1.74391V5.28199C0 7.46997 0.88198 9.53176 2.48386 11.0935C0.856035 13.7063 0 16.569 0 19.4341C0 29.1884 9.19625 37.1241 20.5 37.1241C31.8037 37.1241 41 29.1884 41 19.4341C41 16.5734 40.1464 13.7145 38.523 11.1048C40.0529 9.61086 41 7.55205 41 5.28207V1.74391ZM20.5001 4.10274C22.4136 4.10274 24.3025 4.36093 26.0992 4.86026C24.7576 5.38813 23.5262 6.18253 22.474 7.21712C21.6723 8.00547 21.0131 8.89594 20.5074 9.85812C20.0017 8.89594 19.3425 8.00547 18.5407 7.21712C17.487 6.18096 16.2535 5.38577 14.9094 4.8579C16.7036 4.36015 18.5895 4.10274 20.5001 4.10274ZM20.5 23.682C20.9492 24.4139 21.5108 25.072 22.1611 25.6335L20.5 28.7097L18.8389 25.6335C19.4892 25.072 20.0508 24.4139 20.5 23.682ZM13.293 25.3308C9.98134 25.3308 7.28711 22.6855 7.28711 19.4341C7.28711 16.1827 9.98134 13.5374 13.293 13.5374C16.6046 13.5374 19.2988 16.1827 19.2988 19.4341C19.2988 22.6855 16.6046 25.3308 13.293 25.3308ZM21.7012 19.4341C21.7012 19.3403 21.704 19.2471 21.7084 19.1543C21.7167 19.098 21.7225 19.0407 21.7223 18.9821V18.9596C21.9695 15.9294 24.5582 13.5374 27.707 13.5374C31.0187 13.5374 33.7129 16.1827 33.7129 19.4341C33.7129 22.6855 31.0187 25.3308 27.707 25.3308C24.3954 25.3308 21.7012 22.6855 21.7012 19.4341ZM2.42621 5.80593C3.17278 6.23332 4.0212 6.4614 4.89942 6.4614H10.5791H10.585H10.8906C13.139 6.4614 15.2521 7.32169 16.8407 8.88376C18.1513 10.1725 18.9743 11.8112 19.2204 13.5847C17.8662 12.2618 16.0568 11.3883 14.0459 11.2122C13.956 11.1911 13.8626 11.1787 13.7661 11.1787H8.50286C7.1907 11.1787 5.97455 10.7755 4.97846 10.0916C4.91423 10.0187 4.84104 9.95168 4.7568 9.89421C4.70067 9.85592 4.64205 9.82424 4.58223 9.79648C3.3801 8.81952 2.57227 7.40322 2.42621 5.80593ZM38.5977 19.4341C38.5977 27.8878 30.4791 34.7654 20.5 34.7654C10.5209 34.7654 2.40234 27.8878 2.40234 19.4341C2.40234 17.0745 3.09582 14.7032 4.41687 12.5137C5.36259 13.0225 6.39808 13.3501 7.47769 13.4773C5.88062 14.9808 4.88477 17.0953 4.88477 19.4341C4.88477 23.9861 8.65668 27.6894 13.293 27.6894C14.5513 27.6894 15.7457 27.4161 16.8185 26.9277L19.4387 31.7799C19.6471 32.1656 20.0553 32.4068 20.5 32.4068C20.9447 32.4068 21.3529 32.1656 21.5613 31.7799L24.1815 26.9277C25.2543 27.4161 26.4488 27.6894 27.707 27.6894C32.3433 27.6894 36.1152 23.9861 36.1152 19.4341C36.1152 17.096 35.1199 14.982 33.5237 13.4785C34.6228 13.3509 35.6581 13.0185 36.5878 12.5214C37.9058 14.7088 38.5977 17.0775 38.5977 19.4341ZM36.3987 9.81543C36.3475 9.84051 36.2972 9.86811 36.2489 9.90105C36.1712 9.95404 36.1028 10.0151 36.042 10.0813C35.0456 10.7713 33.8271 11.1787 32.5117 11.1787H27.2484C27.1547 11.1787 27.0639 11.1902 26.9764 11.2102C24.9648 11.381 23.1538 12.2499 21.7964 13.5685C22.0453 11.8012 22.8673 10.1685 24.1739 8.88368C25.7625 7.32161 27.8756 6.46133 30.1239 6.46133H30.3957C30.3984 6.46133 30.401 6.46156 30.4037 6.46156C30.406 6.46156 30.4083 6.46133 30.4106 6.46133H36.1152C36.9885 6.46133 37.8315 6.23544 38.5732 5.81222C38.425 7.41753 37.6096 8.83918 36.3987 9.81543Z" fill="#7653FC"/>
<path d="M13.5 16.6835L14.5103 19.2744H17.7798L15.1347 20.8758L16.145 23.4667L13.5 21.8654L10.855 23.4667L11.8653 20.8758L9.22025 19.2744H12.4897L13.5 16.6835Z" fill="#7653FC"/>
<path d="M27.5 16.6835L28.5103 19.2744H31.7798L29.1347 20.8758L30.145 23.4667L27.5 21.8654L24.855 23.4667L25.8653 20.8758L23.2202 19.2744H26.4897L27.5 16.6835Z" fill="#7653FC"/>
</svg>
